<?xml version="1.0" encoding="utf-8"?>
<svg viewBox="125.293 87.236 355.386 311.474" xmlns="http://www.w3.org/2000/svg">
  <defs>
    <linearGradient id="paint0_linear_16_339" x1="-12.4348" y1="91.2145" x2="228.124" y2="92.098" gradientUnits="userSpaceOnUse" gradientTransform="matrix(1.496509, 0, 0, 1.47355, 140.389208, 93.550491)">
      <stop stop-color="#AA367C"/>
      <stop offset="1" stop-color="#4A2FBD"/>
    </linearGradient>
  </defs>
  <path d="M 421.191 196.555 C 429.351 193.543 438.53 197.603 440.732 205.905 C 449.025 237.2 446.876 270.451 434.357 300.652 C 419.842 335.669 392.454 364.01 357.655 380.021 C 322.854 396.033 283.204 398.538 246.614 387.034 C 210.022 375.533 179.18 350.873 160.239 317.97 C 141.297 285.067 135.649 246.342 144.424 209.522 C 153.198 172.698 175.746 140.488 207.572 119.314 C 239.4 98.139 278.164 89.558 316.132 95.282 C 348.877 100.216 378.954 115.48 401.965 138.562 C 408.067 144.686 406.891 154.526 400.076 159.872 C 393.261 165.219 383.398 164.026 377.129 158.067 C 359.195 141.02 336.247 129.746 311.356 125.995 C 281.236 121.455 250.486 128.262 225.241 145.058 C 199.992 161.856 182.104 187.408 175.144 216.617 C 168.185 245.826 172.665 276.547 187.692 302.648 C 202.716 328.748 227.183 348.312 256.209 357.436 C 285.237 366.56 316.691 364.572 344.294 351.87 C 371.9 339.171 393.625 316.688 405.141 288.91 C 414.658 265.955 416.619 240.775 410.98 216.868 C 409.007 208.511 413.032 199.566 421.191 196.555 Z" fill="url(#paint0_linear_16_339)" style="" transform="matrix(1, 0, 0, 1, 7.105427357601002e-15, 0)"/>
  <text style="fill: rgb(255, 255, 255); font-family: Arial, sans-serif; font-size: 17.4px; font-weight: 700; white-space: pre; transform-origin: 234.857px 192.531px;" transform="matrix(4.454849243164, -0.107359997928, 0.140478029847, 4.129636764526, 58.295817518335, 52.837695141473)" x="217.213" y="197.892">%5</text>
</svg>